<?xml version="1.0" standalone="no"?>
<!DOCTYPE svg PUBLIC "-//W3C//DTD SVG 20010904//EN"
 "http://www.w3.org/TR/2001/REC-SVG-20010904/DTD/svg10.dtd">
<svg version="1.0" xmlns="http://www.w3.org/2000/svg"
 width="349.000000pt" height="536.000000pt" viewBox="0 0 349.000000 536.000000"
 preserveAspectRatio="xMidYMid meet">

<g transform="translate(0.000000,536.000000) scale(0.100000,-0.100000)"
fill="#000000" stroke="none">
<path d="M868 5353 c475 -2 1249 -2 1720 0 471 1 83 2 -863 2 -946 0 -1332 -1
-857 -2z"/>
<path d="M3475 2695 c0 -1444 3 -2625 8 -2625 4 0 7 1181 7 2625 0 1444 -3
2625 -7 2625 -5 0 -8 -1181 -8 -2625z"/>
<path d="M1282 5003 c-16 -75 -31 -205 -42 -362 -5 -79 -15 -149 -21 -157 -9
-12 -25 -1 -83 60 -39 41 -84 93 -99 116 -18 26 -34 40 -45 38 -16 -3 -17 -31
-20 -333 -3 -344 2 -406 39 -490 18 -40 49 -62 49 -35 0 46 18 63 60 56 66
-10 356 104 720 285 118 58 225 109 237 113 33 11 46 31 28 46 -11 9 -12 17
-4 33 9 16 8 23 -8 36 -24 19 -68 96 -77 133 -3 15 -12 33 -19 40 -17 17 -40
68 -73 158 -41 114 -82 190 -108 200 -13 5 -26 20 -30 34 -8 32 -26 34 -26 3
0 -13 -9 -32 -20 -42 -11 -10 -20 -31 -20 -48 0 -39 -39 -205 -50 -212 -9 -5
-26 9 -57 48 -10 12 -40 40 -68 60 -52 40 -195 192 -223 240 -9 15 -19 27 -23
27 -4 0 -12 -21 -17 -47z m139 -255 c6 -12 31 -42 54 -67 58 -64 95 -121 95
-149 0 -17 8 -27 30 -35 21 -8 33 -21 38 -40 6 -22 17 -32 47 -42 42 -15 55
-12 55 12 0 9 8 26 19 37 21 24 34 89 20 103 -12 12 27 102 48 110 19 7 45
-23 79 -92 14 -27 42 -83 63 -123 29 -55 35 -76 27 -86 -11 -14 -189 -94 -468
-210 -84 -35 -215 -91 -291 -125 -76 -34 -147 -61 -158 -61 -18 0 -19 5 -13
63 4 36 1 94 -6 136 -6 39 -9 83 -6 96 6 23 39 44 92 59 24 7 69 -24 79 -54 7
-22 49 -28 61 -8 19 31 36 130 34 201 -1 64 5 99 32 188 18 60 38 109 45 109
7 0 18 -10 24 -22z m-339 -298 c18 -27 36 -50 40 -50 15 0 8 -43 -9 -56 -22
-16 -59 -18 -68 -3 -13 20 -18 159 -6 159 5 0 25 -22 43 -50z"/>
<path d="M1995 3960 c-204 -18 -301 -39 -445 -97 -135 -54 -172 -76 -260 -152
-157 -136 -222 -221 -293 -381 -107 -244 -157 -450 -157 -651 0 -33 -7 -95
-15 -137 -13 -64 -21 -82 -48 -105 -82 -72 -118 -114 -132 -156 -33 -98 -9
-303 64 -526 22 -66 42 -141 45 -166 13 -110 64 -202 142 -257 36 -26 44 -37
44 -64 0 -17 7 -59 15 -92 8 -34 19 -99 24 -146 9 -74 23 -124 49 -166 26 -43
113 -163 139 -193 18 -20 33 -41 33 -47 0 -6 7 -18 16 -25 9 -7 34 -39 55 -71
22 -31 60 -73 85 -92 25 -19 66 -63 92 -97 40 -53 53 -64 87 -71 46 -9 111
-27 140 -38 28 -12 103 -23 148 -22 64 2 70 1 144 -4 60 -5 84 -1 145 20 40
13 89 28 108 32 39 7 78 32 130 80 19 18 50 36 68 39 19 3 50 21 70 40 38 34
54 47 185 147 42 32 87 77 105 105 55 85 119 235 142 333 50 208 46 198 103
224 75 34 111 77 166 201 26 61 74 163 105 227 93 192 117 327 75 411 -36 70
-87 134 -119 147 -35 15 -36 26 -15 125 9 41 18 155 22 271 6 207 -2 296 -33
356 -8 15 -30 89 -50 164 -43 170 -113 314 -177 367 -23 19 -112 105 -198 189
-147 146 -162 157 -254 202 -54 26 -126 54 -159 62 -75 17 -270 25 -391 14z
m332 -96 c17 -8 34 -18 38 -24 3 -5 15 -10 26 -10 12 0 41 -14 65 -32 35 -25
44 -38 44 -61 0 -19 4 -27 13 -24 7 2 11 16 9 32 -3 26 -1 27 25 20 68 -17
132 -62 118 -84 -11 -19 -39 -12 -61 16 -25 32 -54 26 -54 -12 0 -14 -4 -25
-10 -25 -15 0 -12 -36 5 -50 8 -7 15 -19 15 -28 0 -12 -5 -10 -24 7 -20 18
-28 21 -44 12 -26 -14 -52 -4 -52 20 0 12 -7 19 -19 19 -26 0 -48 27 -33 42
19 19 -33 51 -71 45 -19 -3 -43 1 -57 9 -14 7 -50 13 -80 14 -44 0 -59 4 -74
21 -14 17 -24 20 -52 14 -54 -10 -60 5 -12 28 l43 20 -79 8 c-100 10 -108 14
-71 29 20 8 61 10 125 6 56 -3 101 -2 110 4 18 12 112 2 157 -16z m-540 -10
c-3 -3 -12 -4 -19 -1 -8 3 -5 6 6 6 11 1 17 -2 13 -5z m-54 -21 c-7 -2 -19 -2
-25 0 -7 3 -2 5 12 5 14 0 19 -2 13 -5z m212 -53 c-3 -5 -14 -10 -23 -10 -15
0 -15 2 -2 10 20 13 33 13 25 0z m178 -70 c14 -11 34 -20 45 -20 11 0 25 -6
31 -14 7 -8 30 -17 52 -21 23 -4 53 -13 67 -21 15 -8 33 -14 40 -14 19 0 82
-53 82 -68 0 -18 -50 -36 -64 -22 -16 16 -44 12 -59 -10 -17 -24 -58 -40 -105
-40 -20 0 -44 -5 -52 -11 -11 -7 -5 -10 25 -8 63 3 83 0 98 -15 7 -8 31 -14
53 -13 34 0 94 -13 188 -43 38 -12 55 -1 25 17 l-24 14 25 -5 c14 -3 63 -19
110 -35 75 -27 87 -28 100 -15 13 13 11 18 -18 40 -17 14 -43 45 -57 68 -14
24 -34 51 -45 61 -11 10 -20 22 -20 28 0 5 -13 25 -30 44 -29 33 -38 53 -22
53 7 0 32 -23 114 -105 49 -48 98 -122 98 -147 0 -9 11 -28 25 -42 14 -14 25
-30 25 -36 0 -13 -33 -13 -46 0 -8 8 -15 6 -23 -4 -11 -12 -2 -25 52 -78 67
-65 112 -96 123 -85 4 4 -12 26 -35 49 -26 28 -39 48 -35 58 4 8 6 23 6 32 -1
14 4 12 22 -8 21 -25 23 -25 39 -10 12 13 14 22 7 42 -25 64 8 76 39 15 20
-38 20 -39 1 -56 -30 -27 -23 -106 9 -104 10 0 11 2 4 6 -15 5 -18 63 -4 63
21 0 31 -29 25 -69 -6 -40 -17 -51 -29 -31 -3 5 -12 7 -19 4 -11 -4 -10 -12 4
-42 10 -20 15 -41 10 -45 -4 -5 5 -34 21 -65 40 -82 72 -207 70 -275 -1 -32 3
-73 9 -91 18 -55 -24 -323 -60 -382 -12 -18 -19 -38 -16 -43 4 -5 -7 -19 -23
-30 -25 -18 -30 -19 -35 -5 -3 9 -4 20 0 25 3 5 -17 9 -45 9 -44 0 -55 4 -90
38 -29 27 -57 42 -104 55 -36 9 -74 17 -85 17 -11 0 -25 6 -31 13 -8 10 -35
13 -104 10 -74 -2 -103 -8 -144 -28 -72 -34 -148 -112 -164 -166 -7 -24 -16
-49 -21 -55 -4 -6 -5 -26 -2 -43 4 -18 2 -42 -5 -54 -10 -19 -5 -36 40 -122
62 -122 69 -129 144 -168 52 -27 71 -31 135 -31 65 0 83 4 136 31 82 43 118
74 152 136 35 61 52 134 52 217 0 33 3 60 7 60 3 0 15 -7 25 -16 16 -16 22
-15 83 15 36 17 72 31 80 31 8 0 17 5 20 10 3 6 11 10 17 10 7 0 8 -24 3 -74
-4 -46 -3 -76 4 -80 5 -4 12 -2 15 3 4 5 36 25 71 43 61 31 67 32 92 18 19
-11 32 -33 50 -85 21 -64 22 -77 12 -143 -12 -85 -16 -96 -119 -307 -80 -164
-131 -245 -153 -245 -6 0 -17 12 -24 25 -10 22 -6 42 27 138 26 77 36 122 32
146 -3 24 -1 32 7 27 6 -4 11 -17 12 -29 1 -19 2 -18 9 6 5 16 4 43 -2 64 -18
66 -1 155 43 223 21 33 39 63 39 66 0 3 -14 -6 -32 -21 l-31 -27 -13 24 c-13
22 -13 21 -14 -18 0 -22 -6 -63 -14 -90 -8 -27 -20 -80 -26 -119 -48 -274
-174 -699 -217 -730 -9 -7 -22 -28 -27 -46 -15 -48 -106 -175 -135 -189 -30
-14 -37 -6 -23 25 16 34 15 55 -3 75 -11 12 -12 29 -6 80 13 99 10 126 -14
122 -11 -2 -23 -9 -26 -14 -4 -6 -12 -7 -18 -4 -6 4 -11 2 -11 -4 0 -13 -31
-77 -65 -135 -25 -44 -31 -85 -15 -116 9 -15 2 -32 -39 -92 -27 -40 -71 -96
-98 -124 -54 -57 -141 -103 -154 -82 -6 10 -10 10 -22 0 -9 -7 -21 -11 -29
-10 -18 4 -60 -20 -76 -43 -8 -11 -19 -17 -25 -15 -7 3 -24 -7 -39 -21 l-28
-26 0 30 c-1 28 -1 28 -16 9 -13 -17 -16 -18 -24 -5 -5 8 -10 18 -10 23 0 4
-9 2 -19 -5 -15 -9 -25 -9 -43 -1 -13 6 -35 14 -50 17 -19 4 -28 13 -28 26 0
36 -44 25 -66 -15 -30 -56 -40 -38 -18 33 6 20 -15 52 -30 46 -8 -3 -17 -1
-21 5 -4 8 -12 8 -26 1 -17 -10 -19 -7 -19 20 0 31 -17 39 -38 18 -9 -9 -12
-6 -12 15 0 18 -6 30 -17 33 -61 19 -116 56 -133 90 -8 16 -18 30 -22 32 -4 2
-4 19 -1 39 5 28 3 34 -7 28 -18 -11 -30 14 -19 42 13 35 12 50 -3 35 -19 -19
-28 -14 -28 17 0 17 -4 32 -9 35 -15 9 -44 -32 -38 -54 5 -20 4 -20 -40 5 -25
14 -51 25 -58 25 -34 0 -69 84 -80 194 -5 46 -11 59 -26 63 -10 3 -19 10 -19
17 -1 40 -21 161 -28 170 -10 12 -43 156 -67 291 -9 50 -19 167 -22 260 -5
143 -3 176 11 209 9 21 16 56 16 78 0 25 8 50 20 65 11 14 20 41 20 59 0 19 4
34 9 34 5 0 27 -17 50 -37 41 -38 41 -38 30 -83 -13 -54 -5 -130 22 -199 10
-28 19 -64 19 -80 0 -39 48 -101 108 -140 127 -81 247 -92 359 -32 56 30 123
95 123 120 0 6 16 29 35 50 50 55 61 98 34 127 -12 12 -18 27 -15 32 3 5 -4
38 -15 73 -19 58 -47 100 -112 167 -71 73 -238 104 -381 71 -45 -11 -93 -28
-107 -39 -23 -16 -33 -17 -65 -9 -109 28 -117 41 -117 181 0 80 -4 114 -20
153 -20 52 -29 164 -14 199 10 26 37 2 37 -34 0 -44 12 -90 22 -84 5 3 8 34 6
68 -1 34 3 75 9 92 5 16 16 47 23 69 18 59 34 95 42 95 5 0 8 11 8 25 0 48 97
206 136 224 13 5 41 26 62 46 22 19 44 35 49 35 21 0 131 60 171 94 54 45 62
46 26 4 -27 -33 -27 -33 -5 -36 12 -2 29 2 36 8 8 7 22 9 31 6 16 -6 15 -8 -2
-21 -10 -8 -27 -15 -36 -15 -10 0 -18 -5 -18 -11 0 -7 10 -9 28 -4 63 16 113
17 130 3 24 -21 148 -58 202 -61 29 -2 59 -13 85 -30 49 -34 65 -34 65 -2 0
20 5 25 25 25 13 0 29 -8 34 -17 6 -10 11 -13 11 -6 0 8 18 9 61 6 50 -5 61
-3 57 8 -3 9 -16 13 -36 11 -29 -3 -32 -1 -32 22 0 28 -14 35 -24 11 -3 -10
-19 -15 -46 -15 -23 0 -49 -4 -58 -9 -24 -13 -61 14 -44 31 21 21 13 27 -24
16 -20 -5 -37 -8 -37 -6 -1 2 -12 15 -25 29 -27 31 -21 55 16 63 55 13 82 29
82 47 0 11 -2 19 -5 19 -2 0 -30 -16 -60 -36 l-56 -35 -23 24 c-22 23 -22 27
-7 41 15 15 14 17 -7 22 -32 9 -27 29 11 47 67 32 94 40 162 47 39 4 73 8 76
9 4 0 18 -8 32 -19z m-285 -12 c-5 -14 -97 -40 -117 -33 -18 7 -10 14 36 30
48 18 86 19 81 3z m469 -25 c-9 -9 -20 -13 -24 -9 -4 4 -1 11 7 16 25 16 35
11 17 -7z m477 -85 c84 -88 98 -115 71 -134 -17 -12 -20 -10 -36 25 -9 22 -35
57 -56 78 -21 21 -49 53 -61 71 -22 30 -22 32 -5 32 10 0 49 -32 87 -72z
m-1064 8 c0 -18 -19 -33 -53 -41 -39 -10 -36 18 6 39 40 19 47 20 47 2z m80
-2 c0 -12 -34 -33 -52 -34 -25 0 -22 15 5 28 25 12 47 15 47 6z m628 -126 c20
-20 13 -29 -20 -25 -44 6 -69 17 -62 28 8 13 68 11 82 -3z m632 -390 c0 -18
-2 -20 -9 -8 -6 8 -7 18 -5 22 9 14 14 9 14 -14z m60 -115 c0 -22 -2 -25 -10
-13 -13 20 -13 40 0 40 6 0 10 -12 10 -27z m20 -103 c0 -22 -4 -40 -10 -40
-11 0 -13 39 -4 64 10 26 14 19 14 -24z m-23 -142 c-2 -13 -4 -3 -4 22 0 25 2
35 4 23 2 -13 2 -33 0 -45z m-2307 -459 c16 -18 30 -35 30 -40 0 -24 -16 -39
-47 -45 -26 -5 -33 -10 -27 -23 3 -9 10 -30 14 -47 4 -18 10 -37 14 -43 4 -6
0 -24 -10 -40 -13 -22 -14 -32 -6 -47 11 -18 11 -18 12 4 0 12 2 22 4 22 2 0
11 3 20 6 13 5 16 -1 16 -30 0 -33 2 -36 19 -26 11 5 22 10 24 10 9 0 17 -70
22 -190 3 -63 9 -144 15 -180 14 -91 13 -120 -4 -120 -29 0 -63 56 -69 116 -4
33 -25 124 -48 204 -23 80 -42 165 -43 190 -2 25 -8 62 -15 84 -9 24 -11 56
-7 85 4 25 9 61 12 80 5 35 20 61 35 61 5 0 22 -14 39 -31z m571 -136 c31 -6
35 -13 18 -30 -19 -19 -99 13 -99 39 0 6 11 7 26 4 15 -4 39 -10 55 -13z
m1223 1 c11 -28 6 -55 -13 -80 l-19 -25 -7 22 c-4 12 -19 33 -33 46 l-25 23
25 0 c14 0 31 7 38 15 16 19 26 19 34 -1z m-1729 -91 c-6 -15 -9 -12 -17 16
-13 46 1 78 15 34 5 -18 6 -40 2 -50z"/>
<path d="M1328 2623 c-55 -5 -75 -22 -58 -52 13 -26 82 -62 135 -72 22 -4 76
-16 120 -27 169 -43 208 -37 185 24 -18 47 -60 84 -95 84 -17 0 -36 5 -42 11
-11 11 -41 17 -108 23 -22 2 -51 5 -65 8 -14 3 -46 3 -72 1z"/>
<path d="M1153 2558 c-29 -33 -57 -78 -51 -84 10 -10 83 27 100 51 35 47 -9
76 -49 33z"/>
<path d="M2569 2546 c-7 -7 -160 -26 -244 -29 -45 -2 -90 -10 -103 -18 -29
-18 -28 -54 4 -86 28 -28 36 -28 221 -3 39 5 129 10 200 11 127 1 129 1 181
-30 29 -17 55 -31 57 -31 2 0 3 20 2 45 -2 44 -2 44 -77 90 -75 44 -114 54
-149 36 -12 -7 -26 -5 -45 5 -29 15 -40 17 -47 10z"/>
<path d="M1848 2180 c-26 -16 -22 -28 8 -22 18 3 30 0 35 -11 7 -12 17 -13 45
-7 27 6 44 4 68 -8 17 -10 44 -16 60 -14 l29 4 -31 28 c-27 24 -41 28 -114 34
-52 4 -90 2 -100 -4z"/>
<path d="M2823 1711 c-3 -12 -12 -21 -19 -21 -11 0 -13 -9 -8 -39 6 -37 5 -40
-20 -43 -38 -4 -32 -23 7 -24 36 -1 157 37 157 49 0 5 -20 5 -45 1 -48 -7 -54
0 -35 36 8 15 6 24 -11 41 l-20 20 -6 -20z"/>
<path d="M1746 1621 c-9 -10 -16 -21 -16 -24 0 -13 105 -74 139 -82 l33 -7
-30 44 c-35 51 -48 63 -84 77 -21 8 -29 6 -42 -8z"/>
<path d="M2196 1605 c-18 -28 -43 -32 -71 -11 -24 17 -76 2 -115 -34 -15 -14
-38 -31 -51 -37 l-24 -11 28 -7 c16 -4 45 -3 65 3 21 6 60 13 89 17 59 8 103
42 103 81 0 30 -4 30 -24 -1z"/>
<path d="M1255 1553 c-19 -29 -25 -50 -25 -90 0 -29 2 -53 5 -53 20 0 59 29
75 58 15 25 26 33 40 29 15 -4 17 -1 11 17 -9 25 -3 56 10 56 6 0 7 5 4 10 -3
6 -26 10 -50 10 -40 0 -47 -4 -70 -37z"/>
<path d="M1579 1515 c-11 -22 -3 -88 11 -96 35 -20 80 -36 112 -38 9 0 30 -12
46 -26 36 -30 38 -30 52 -5 18 34 -23 78 -79 86 -25 3 -53 13 -62 20 -9 8 -23
12 -32 8 -12 -4 -20 3 -30 27 -7 18 -15 29 -18 24z"/>
<path d="M1400 1496 c0 -9 8 -16 20 -16 10 0 36 -11 56 -25 35 -24 84 -34 84
-17 0 11 -49 38 -90 50 -19 5 -43 13 -52 17 -13 5 -18 2 -18 -9z"/>
<path d="M2261 1466 c-23 -17 -42 -23 -60 -20 -37 6 -107 -36 -103 -62 5 -27
9 -28 34 -12 13 9 41 18 63 21 22 3 54 9 70 13 l30 7 -19 -22 c-11 -11 -17
-23 -15 -26 6 -5 104 22 131 36 38 19 62 7 36 -19 -9 -9 -6 -12 14 -12 15 0
30 5 33 10 9 15 25 12 25 -5 0 -20 -40 -35 -90 -35 -21 0 -42 -4 -45 -10 -3
-5 -14 -10 -24 -10 -10 0 -24 -7 -31 -15 -7 -8 -27 -15 -46 -15 -52 0 -48 -15
9 -33 94 -30 111 -62 63 -115 -34 -38 -53 -45 -78 -27 -28 19 -82 20 -97 1
-17 -21 -70 -26 -121 -11 -82 24 -224 49 -282 50 -31 0 -68 7 -82 15 -22 11
-35 12 -77 1 -61 -16 -66 -12 -103 71 -28 63 -25 70 33 85 41 11 54 33 18 33
-13 0 -41 11 -61 25 -62 42 -97 57 -121 51 -34 -9 -36 -28 -9 -82 13 -26 24
-55 24 -65 0 -10 4 -20 9 -23 5 -3 23 -45 40 -92 38 -105 43 -115 94 -184 55
-75 74 -90 112 -90 27 0 34 -5 39 -25 10 -39 43 -53 145 -61 78 -6 93 -5 89 7
-3 8 -26 17 -55 21 -112 16 -223 83 -223 135 0 25 16 23 63 -10 20 -13 36 -17
55 -12 52 13 156 13 172 0 16 -14 108 -26 208 -27 34 0 62 -4 62 -8 0 -24 -94
-80 -135 -80 -26 0 -33 -14 -14 -25 22 -14 82 8 132 49 29 23 59 47 68 52 37
21 119 104 119 120 0 17 48 101 79 137 8 10 15 26 16 37 1 11 14 31 29 45 15
14 32 39 38 55 5 17 14 30 19 30 21 0 21 -36 2 -99 -12 -36 -24 -90 -27 -119
-7 -50 -6 -52 13 -40 16 9 23 9 37 -3 16 -12 17 -12 11 4 -4 10 2 33 13 55 18
32 18 38 6 48 -12 9 -14 26 -7 100 4 49 11 97 16 107 5 11 3 17 -7 17 -24 0
-68 24 -68 38 0 6 -11 12 -24 12 -14 0 -28 4 -31 10 -4 6 -35 7 -79 3 -50 -4
-75 -2 -80 6 -10 16 -18 14 -55 -13z"/>
<path d="M2045 1391 c-10 -17 12 -21 25 -6 10 12 10 15 -3 15 -9 0 -18 -4 -22
-9z"/>
<path d="M1236 1382 c-19 -34 -26 -90 -20 -152 5 -59 10 -70 25 -70 13 0 17
-5 12 -17 -4 -10 -11 -21 -15 -24 -5 -3 -6 -24 -2 -45 l7 -39 24 50 c25 56 28
77 12 103 -8 12 -7 38 4 94 l15 78 -29 14 c-16 8 -31 11 -33 8z"/>
<path d="M1675 1300 c3 -5 14 -10 23 -10 15 0 15 2 2 10 -20 13 -33 13 -25 0z"/>
<path d="M1735 1280 c3 -5 21 -10 39 -10 18 0 41 -7 52 -15 23 -17 47 -20 42
-4 -2 6 -22 17 -43 25 -47 16 -99 18 -90 4z"/>
<path d="M1940 1240 c0 -5 15 -10 33 -10 24 0 28 3 17 10 -20 13 -50 13 -50 0z"/>
<path d="M1760 757 c0 -21 70 -97 89 -97 24 0 101 57 101 75 0 15 -21 20 -127
30 -50 5 -63 3 -63 -8z"/>
<path d="M10 20 c0 -20 7 -20 310 -20 268 0 310 2 310 15 0 13 162 15 1345 15
1190 0 1346 -2 1351 -15 5 -11 21 -15 60 -15 47 0 54 2 54 20 0 20 -7 20
-1715 20 -1708 0 -1715 0 -1715 -20z"/>
</g>
</svg>
