<?xml version="1.0" standalone="no"?>
<!DOCTYPE svg PUBLIC "-//W3C//DTD SVG 20010904//EN"
 "http://www.w3.org/TR/2001/REC-SVG-20010904/DTD/svg10.dtd">
<svg version="1.0" xmlns="http://www.w3.org/2000/svg"
 width="512.000000pt" height="512.000000pt" viewBox="0 0 512.000000 512.000000"
 preserveAspectRatio="xMidYMid meet">

<g transform="translate(0.000000,512.000000) scale(0.100000,-0.100000)"
fill="#000000" stroke="none">
<path d="M1510 5109 c-248 -5 -311 -10 -397 -28 -271 -57 -503 -181 -690 -368
-224 -223 -348 -470 -401 -793 -15 -95 -17 -224 -17 -1360 l0 -1255 23 -118
c77 -405 257 -692 575 -920 194 -140 434 -226 709 -256 131 -15 2310 -15 2468
0 283 25 571 125 764 263 128 92 257 229 348 372 67 105 138 270 174 406 47
178 47 178 51 1388 4 1203 0 1368 -38 1552 -43 206 -136 416 -248 558 -268
340 -593 515 -1036 560 -115 12 -1701 11 -2285 -1z m2340 -483 c203 -33 378
-118 517 -249 184 -175 274 -397 295 -727 13 -214 3 -2163 -12 -2270 -39 -277
-129 -479 -280 -630 -117 -117 -259 -191 -464 -241 -147 -36 -338 -41 -1444
-36 -938 4 -1069 6 -1161 21 -433 72 -685 293 -786 691 -42 166 -47 326 -42
1505 4 1161 3 1135 55 1300 81 258 248 452 477 553 96 43 196 70 335 91 14 2
565 4 1225 5 979 1 1216 -2 1285 -13z"/>
<path d="M3842 4206 c-125 -41 -204 -152 -204 -286 0 -84 28 -152 85 -208 94
-92 222 -112 342 -53 272 134 186 539 -117 557 -38 2 -81 -2 -106 -10z"/>
<path d="M2405 3879 c-444 -53 -835 -331 -1030 -733 -391 -802 106 -1747 987
-1881 466 -71 946 120 1233 490 103 134 161 239 211 387 173 508 22 1066 -385
1421 -176 154 -421 270 -644 307 -94 15 -282 20 -372 9z m334 -486 c209 -43
402 -176 525 -362 202 -304 184 -699 -46 -988 -282 -355 -806 -420 -1169 -145
-436 331 -443 991 -14 1332 201 160 447 217 704 163z"/>
</g>
</svg>
